<svg xmlns="http://www.w3.org/2000/svg" width="976" height="340" viewBox="0 0 976 340" font-family="-apple-system, BlinkMacSystemFont, 'SF Pro Display', 'Helvetica Neue', Helvetica, Arial, sans-serif"><rect x="0" y="0" width="312" height="340" rx="28" fill="#101012"/><circle cx="44" cy="52" r="14" fill="#3b5bdb"/><text x="28" y="118" font-size="15" fill="#98989f" font-weight="500">Restaurant platform</text><text x="28" y="156" font-size="28" font-weight="700" letter-spacing="-.8" fill="#f5f5f7">NomreFood</text><text x="28" y="196" font-size="16" fill="#98989f">Multi-restaurant QR menus with a</text><text x="28" y="220" font-size="16" fill="#98989f">right-to-left Persian interface.</text><text x="28" y="244" font-size="16" fill="#98989f">Running in production.</text><rect x="28" y="282" width="77" height="32" rx="16" fill="#1c1c1e"/><text x="66" y="303" font-size="14" font-weight="500" text-anchor="middle" fill="#f5f5f7">Next.js</text><rect x="110.6" y="282" width="100" height="32" rx="16" fill="#1c1c1e"/><text x="161" y="303" font-size="14" font-weight="500" text-anchor="middle" fill="#f5f5f7">PostgreSQL</text><rect x="216.6" y="282" width="61" height="32" rx="16" fill="#1c1c1e"/><text x="247" y="303" font-size="14" font-weight="500" text-anchor="middle" fill="#f5f5f7">Redis</text><rect x="332" y="0" width="312" height="340" rx="28" fill="#101012"/><circle cx="376" cy="52" r="14" fill="#14b8a6"/><text x="360" y="118" font-size="15" fill="#98989f" font-weight="500">Freelance · Europe</text><text x="360" y="156" font-size="28" font-weight="700" letter-spacing="-.8" fill="#f5f5f7">Hotel websites</text><text x="360" y="196" font-size="16" fill="#98989f">Multilingual sites for hotels in</text><text x="360" y="220" font-size="16" fill="#98989f">Germany and across Europe.</text><rect x="360" y="282" width="77" height="32" rx="16" fill="#1c1c1e"/><text x="398" y="303" font-size="14" font-weight="500" text-anchor="middle" fill="#f5f5f7">Next.js</text><rect x="442.6" y="282" width="77" height="32" rx="16" fill="#1c1c1e"/><text x="481" y="303" font-size="14" font-weight="500" text-anchor="middle" fill="#f5f5f7">MariaDB</text><rect x="525.2" y="282" width="61" height="32" rx="16" fill="#1c1c1e"/><text x="556" y="303" font-size="14" font-weight="500" text-anchor="middle" fill="#f5f5f7">Nginx</text><rect x="664" y="0" width="312" height="340" rx="28" fill="#101012"/><circle cx="708" cy="52" r="14" fill="#f59e0b"/><text x="692" y="118" font-size="15" fill="#98989f" font-weight="500">Network automation</text><text x="692" y="156" font-size="28" font-weight="700" letter-spacing="-.8" fill="#f5f5f7">MikroTik backup</text><text x="692" y="196" font-size="16" fill="#98989f">Scheduled backups of the User</text><text x="692" y="220" font-size="16" fill="#98989f">Manager database, via cron or</text><text x="692" y="244" font-size="16" fill="#98989f">serverless.</text><rect x="692" y="282" width="84" height="32" rx="16" fill="#1c1c1e"/><text x="734" y="303" font-size="14" font-weight="500" text-anchor="middle" fill="#f5f5f7">RouterOS</text><rect x="782.4" y="282" width="77" height="32" rx="16" fill="#1c1c1e"/><text x="821" y="303" font-size="14" font-weight="500" text-anchor="middle" fill="#f5f5f7">Node.js</text></svg>